<svg width="24" height="24" viewBox="0 0 24 24" fill="none" xmlns="http://www.w3.org/2000/svg">
<path d="M12 0.296984C5.37075 0.296984 0 5.67223 0 12.297C0 17.6017 3.438 22.098 8.20275 23.6842C8.805 23.7975 9.0225 23.4262 9.0225 23.1052C9.0225 22.8202 9.01575 22.0665 9.01125 21.066C5.6715 21.789 4.968 19.4527 4.968 19.4527C4.42125 18.0697 3.63225 17.6985 3.63225 17.6985C2.54625 16.9567 3.7185 16.9725 3.7185 16.9725C4.9215 17.0542 5.5545 18.2062 5.5545 18.2062C6.62475 20.0422 8.3625 19.5112 9.05025 19.2022C9.15525 18.429 9.468 17.8972 9.8085 17.601C7.1445 17.3002 4.34325 16.269 4.34325 11.6707C4.34325 10.3575 4.80825 9.28798 5.577 8.44798C5.44425 8.14723 5.03775 6.92473 5.68275 5.27173C5.68275 5.27173 6.687 4.95148 8.98275 6.50248C9.9435 6.23623 10.9635 6.10348 11.9827 6.09673C13.0028 6.10348 14.022 6.23698 14.9827 6.50248C17.265 4.95148 18.2685 5.27173 18.2685 5.27173C18.9128 6.92473 18.5062 8.14648 18.3892 8.44798C19.1505 9.28798 19.6155 10.3582 19.6155 11.6707C19.6155 16.2795 16.8105 17.2957 14.1435 17.589C14.5605 17.9482 14.9513 18.687 14.9513 19.8082C14.9513 21.4132 14.9363 22.7062 14.9363 23.097C14.9363 23.409 15.1462 23.784 15.7642 23.6632C20.5642 22.0935 23.9985 17.5935 23.9985 12.2962C23.9985 5.67148 18.6278 0.296234 11.9985 0.296234L12 0.296984Z" fill="black"/>
</svg>
